<svg width="64" height="64" viewBox="0 0 64 64" fill="none" xmlns="http://www.w3.org/2000/svg">
<path d="M48.8004 15.2267C47.7604 14.1867 46.0804 14.1867 45.0404 15.2267L32.0004 28.24L18.9604 15.2C17.9204 14.16 16.2404 14.16 15.2004 15.2C14.1604 16.24 14.1604 17.92 15.2004 18.96L28.2404 32L15.2004 45.04C14.1604 46.08 14.1604 47.76 15.2004 48.8C16.2404 49.84 17.9204 49.84 18.9604 48.8L32.0004 35.76L45.0404 48.8C46.0804 49.84 47.7604 49.84 48.8004 48.8C49.8404 47.76 49.8404 46.08 48.8004 45.04L35.7604 32L48.8004 18.96C49.8137 17.9467 49.8137 16.24 48.8004 15.2267Z" fill="white"/>
</svg>
